<?xml version="1.0" encoding="utf-8"?>
<!-- Generator: Adobe Illustrator 27.0.1, SVG Export Plug-In . SVG Version: 6.00 Build 0)  -->
<svg version="1.1" id="Layer_1" xmlns="http://www.w3.org/2000/svg" xmlns:xlink="http://www.w3.org/1999/xlink" x="0px" y="0px"
	 width="984px" height="114.5px" viewBox="0 0 984 114.5" style="enable-background:new 0 0 984 114.5;" xml:space="preserve">
<g>
	<path d="M66.9,49.1c-3.8-2.2-6.6-3.1-13-4.4l0-0.7c7.8-2.3,21-6.2,21-20.3c0-5.3-2.1-10.3-5.9-13.9c-5-4.9-12.6-7.2-24.1-7.2H0
		v88.7h48.3c17.9,0,29.9-9.5,29.9-23.7C78.1,59.8,74.2,53.4,66.9,49.1 M22.1,17.7h20.5c8.5,0,13.6,3.4,13.6,9.2
		c0,4.7-2.4,10.2-14,10.2H22.1V17.7z M44.4,75.4H22.1V52.7h18.7c11.1,0,16.5,3.8,16.5,11.8C57.3,71.5,52.7,75.4,44.4,75.4"/>
	<path d="M361.6,29.2h17.4l16.2,44.7l13.7-44.7h17.2l-19.4,58.7c-5.2,15.9-8.3,25.3-28,26.4c-6.1,0.4-10.4-0.5-19.3-2.7V95.9
		c7.6,2.3,11.2,3.1,15.2,3c6.3,0,9.3-2,10.7-7.2L361.6,29.2z"/>
	<path d="M99.7,47.7c4.5-15,13.2-20,24.8-19.6l-0.4,18.3c-1.5-0.1-1.7,0.1-2.6,0.1c-7.6,0-20.2,5.3-20.2,14.5V91H83.8V29.6h16V47.7z
		"/>
	<path d="M126.2,59.6c0-19.2,13.3-33.2,32.2-33.2c18.2,0,32.2,14,32.2,33.2S176.6,93,158.4,93C139.5,93,126.2,78.8,126.2,59.6
		 M171.7,59.6c0-11.6-4.7-20.2-13.3-20.2c-8.6,0-13.3,8.6-13.3,20.2c0,13.7,4.7,20.5,13.3,20.5C167,80.1,171.7,73.3,171.7,59.6"/>
	<path d="M194.7,59.6c0-19.2,13.3-33.2,32.2-33.2c18.2,0,32.2,14,32.2,33.2S245.1,93,226.9,93C208,93,194.7,78.8,194.7,59.6
		 M240.1,59.6c0-11.6-4.7-20.2-13.3-20.2c-8.6,0-13.3,8.6-13.3,20.2c0,13.7,4.7,20.5,13.3,20.5C235.5,80.1,240.1,73.3,240.1,59.6"/>
	<polygon points="265.5,1.5 265.5,91 283.3,91 283.3,70.5 294.4,60.5 311.8,91 330.6,91 306.3,49.8 328.9,28.8 305.5,28.8 283,51.4 
		283,1.5 	"/>
	<rect x="337.1" y="1.5" width="17.5" height="89.5"/>
	<path d="M450.5,39.1c4.9-7.5,10.7-11.3,19.5-11.3c6.5,0,11.4,1.7,15.1,5.5c4.3,4.3,5.4,7.8,5.4,19.4V91h-17.7V56.2
		c0-12.4-2.5-16.8-9.7-16.8c-7.4,0-12.6,6.3-12.6,15V91h-17.7V29.6h17.7L450.5,39.1L450.5,39.1z"/>
	<path d="M615.2,2.2v88.7H598V18l-0.7-0.1c0,0-18.7,72.4-18.8,72.9h-16.3c-0.1-0.6-18.6-73.7-18.6-73.7l-0.7,0.1v73.6h-17.1V2.2
		h30.6c0.1,0.5,14,55.6,14,55.6s14.3-55,14.4-55.6C584.8,2.2,615.2,2.2,615.2,2.2z"/>
	<path d="M626.3,29.6H644v41.7c0,6.1,3.9,10.1,10.1,10.1c6.5,0,12.5-6.1,12.5-12.7V29.6H684V91h-17.6v-8.9
		c-4.5,5.2-9.5,10.7-20.9,10.7s-19.3-7.3-19.3-17.9V29.6z"/>
	<path d="M704.5,70.5c2.3,8.3,7.5,12.2,16.3,12.2c6.2,0,10.2-2.8,10.2-6.8c0-3.7-3.7-6.1-13.2-8.2c-17.8-4-25.1-10.2-25.1-21.7
		c0-11.2,9.1-18.1,23.7-18.1c10.8,0,23.5,1.4,27.5,16.4L728.5,47c-0.5-6.3-4.4-9.2-12.5-9.2c-4.8,0-8.6,2.2-8.6,5.2
		c0,3.6,3.1,5.3,13.1,7.7c16.5,3.7,25.9,8.9,25.9,20.7c0,5.6-2.1,10.7-5.9,14.4c-4.8,4.8-11.9,6.9-22.4,6.9
		c-9.7,0-17.1-2.6-22.4-8.1c-2.2-2.4-3.3-4.1-5.3-8.7L704.5,70.5z"/>
	<path d="M810.3,65.4h-40.4C770.4,76,774.4,81,782.6,81c5.5,0,10.1-3.2,14-9.7l12,6.9c-2.7,4.2-9.2,14.5-27.4,14.5
		c-24.7,0-30.1-20.2-30.1-32.9c0-19.4,11.7-32,29.6-32c17.3,0,29.6,12.9,29.6,31.3L810.3,65.4L810.3,65.4z M792.5,54.3
		c0.1-3.3,0.4-15-11.1-15c-12.2,0-11.6,11.7-11.5,15C769.9,54.3,792.5,54.3,792.5,54.3z"/>
	<path d="M818.4,29.6h17.7v41.7c0,6.1,3.9,10.1,10.1,10.1c6.5,0,12.5-6.1,12.5-12.7V29.6h17.5V91h-17.6v-8.9
		c-4.5,5.2-9.5,10.7-20.9,10.7c-11.4,0-19.3-7.3-19.3-17.9V29.6z"/>
	<path d="M904.5,39.5c2.5-3.5,8.1-11.4,21.5-11.4c13.6,0,16.2,7.7,17.8,12.5c5.8-9.8,12.9-12.5,20.1-12.5c12.6,0,20,7.7,20,20.8V91
		h-17.7V49.3c0-6.2-3.3-9.7-9.3-9.7c-7.3,0-12.6,6.6-12.6,15.6V91h-17.7V49.8c0-6.7-2.9-10-9.1-10c-7.9,0-12.9,5.8-12.9,15.3V91H887
		V29.6h17.6L904.5,39.5L904.5,39.5z"/>
</g>
</svg>
