<?xml version="1.0" encoding="utf-8"?>
<!-- Generator: Adobe Illustrator 27.0.1, SVG Export Plug-In . SVG Version: 6.00 Build 0)  -->
<svg version="1.1" id="Layer_1" xmlns="http://www.w3.org/2000/svg" xmlns:xlink="http://www.w3.org/1999/xlink" x="0px" y="0px"
	 width="512px" height="98.73px" viewBox="0 0 512 98.73" style="enable-background:new 0 0 512 98.73;" xml:space="preserve">

<g>
	<g>
		<path d="M402.01,31.47c-2.41-1.37-4.2-1.97-8.29-2.79l-0.02-0.46c4.99-1.45,13.35-3.89,13.35-12.76c0-3.35-1.33-6.46-3.76-8.74
			c-3.17-3.09-8.03-4.54-15.31-4.54h-28.52v55.89h30.72c11.36,0,18.99-6,18.99-14.93C409.16,38.23,406.69,34.19,402.01,31.47
			 M373.54,11.66h13.06c5.42,0,8.68,2.17,8.68,5.77c0,2.93-1.55,6.41-8.91,6.41h-12.82V11.66z M387.68,48.01h-14.14v-14.3h11.88
			c7.05,0,10.48,2.43,10.48,7.43C395.89,45.57,392.98,48.01,387.68,48.01"/>
	</g>
	<g>
		<polygon points="411.88,1.42 411.88,57.77 423.22,57.77 423.22,44.87 430.3,38.58 441.36,57.77 453.31,57.77 437.87,31.78 
			452.22,18.62 437.36,18.62 423.07,32.83 423.07,1.42 		"/>
	</g>
	<g>
		<path d="M512,1.9v55.89h-10.94V11.9l-0.46-0.07c0,0-11.91,45.6-11.99,45.94h-10.36c-0.09-0.35-11.84-46.41-11.84-46.41l-0.45,0.06
			v46.35h-10.88V1.9h19.45c0.08,0.35,8.94,35.01,8.94,35.01s9.07-34.67,9.17-35.01H512z"/>
	</g>
</g>
<g>
	<g>
		<path d="M34.2,88.24v10.5C12.54,97.54,1.38,84.91-0.09,68.57l12.76-1.86C14.27,77.34,20.38,86.77,34.2,88.24z M34.2,0v10.1
			c-10.36,0.66-17.28,6.25-17.28,15.15c0,9.17,4.92,13.95,15.42,16.21l13.82,2.92c14.62,3.06,26.05,9.57,26.05,26.71
			c0,13.95-9.97,26.58-31.36,27.64V88.37c9.3-0.66,18.34-5.18,18.34-16.08c0-11.16-6.91-14.75-17.94-17.01l-13.69-2.79
			C14.13,49.7,3.9,42.66,3.9,26.44C3.9,11.3,15.6,0.93,34.2,0z M40.84,0.13c16.74,1.2,29.1,9.57,30.83,26.71L59.05,29.5
			c-1.46-11.16-7.18-17.94-18.21-19.27V0.13z"/>
	</g>
	<g>
		<path d="M87.13,2.26h12.62v94.35H87.13V2.26z M106.4,43.06h40.93V2.26h12.62v94.35h-12.62V53.69H106.4V43.06z"/>
	</g>
	<g>
		<path d="M214.24,0.13V10.9c-16.48,1.86-26.05,16.08-26.05,38.54c0,22.06,9.57,36.68,26.05,38.54v10.76
			c-23.92-1.86-39.33-20.6-39.33-49.3C174.91,20.2,190.32,1.86,214.24,0.13z M220.89,88.1c17.14-1.33,26.98-15.81,26.98-38.67
			c0-22.99-9.83-37.34-26.98-38.67V0.13c24.45,1.2,40.26,19.53,40.26,49.3c0,29.5-15.81,48.11-40.26,49.3V88.1z"/>
	</g>
	<g>
		<path d="M276.12,2.26h12.62v94.35h-12.62V2.26z M295.38,47.44h12.89c12.23,0,20.07-6.78,20.07-17.27
			c0-10.5-7.84-17.28-20.07-17.28h-12.89V2.26h14.22c19.53,0,32.03,10.9,32.03,27.91c0,17.01-12.49,27.91-32.03,27.91h-14.22V47.44z
			"/>
	</g>
</g>
</svg>
